<?xml version="1.0" encoding="utf-8"?>
<!-- Generator: Adobe Illustrator 24.1.1, SVG Export Plug-In . SVG Version: 6.00 Build 0)  -->
<svg version="1.1" id="图层_1" xmlns="http://www.w3.org/2000/svg" xmlns:xlink="http://www.w3.org/1999/xlink" x="0px" y="0px"
	 viewBox="0 0 200 200" style="enable-background:new 0 0 200 200;" xml:space="preserve">
<style type="text/css">
	.st0{fill:#D32020;stroke:#000000;stroke-miterlimit:10;}
	.st1{fill:none;stroke:#0005B4;stroke-miterlimit:10;}
	.st2{fill:#E3FF4A;stroke:#0005B4;stroke-miterlimit:10;}
	.st3{fill:#22F400;}
	.st4{fill:none;stroke:#D435FF;stroke-miterlimit:10;}
	.st5{font-family:'KaiTi_GB2312';}
	.st6{font-size:9.2801px;}
</style>
<rect x="2.4" y="2.4" class="st0" width="195.2" height="195.2"/>
<line class="st1" x1="114.4" y1="89.5" x2="115.9" y2="185.9"/>
<ellipse class="st2" cx="114.1" cy="89.3" rx="5.6" ry="4.7"/>
<path class="st3" d="M113.9,88.2l-4.6-0.4c-3.5-0.3-7.1-0.5-10.6-0.8c-16-1.2-32-2.6-48-3.8c5-1,36.8-7.4,44-0.2
	c0.5,0.5,0.9,1.2,1.2,1.9"/>
<path class="st3" d="M114.5,88.3l4.6-0.8c3.5-0.6,7-1.2,10.5-1.8c15.8-2.6,31.5-5.3,47.3-7.9c-4.4,2.2-32.8,16-42.2,10.8
	c-0.7-0.4-1.4-0.9-1.9-1.6"/>
<path class="st3" d="M113.9,89.2l3,3c2.3,2.2,4.6,4.6,6.9,6.8c10.4,10.4,20.9,20.7,31.4,31c-4.4-2.2-32.5-16.3-31.8-25.8
	c0.1-0.7,0.3-1.4,0.8-2.1"/>
<path class="st3" d="M113.9,89.2l-0.8-3.9c-0.7-2.9-1.3-5.9-1.9-8.9c-2.9-13.4-5.9-26.8-8.8-40.1c2.5,3.7,18.5,27.9,12.2,35.8
	c-0.5,0.6-1.1,1.1-1.8,1.6"/>
<path class="st3" d="M114.1,88.2l-2.7,3.3c-2,2.5-4.1,4.9-6.1,7.3c-9.2,11.1-18.5,22.3-27.7,33.4c1.4-4.2,10.5-30.8,21.7-32.5
	c0.8-0.2,1.7-0.2,2.6,0.1"/>
<path class="st4" d="M39.9,11.8c0,0.5,0.6,12.3,10.9,17.4c5.4,2.7,10.8,2.2,12.9,1.9"/>
<path class="st4" d="M8.4,11c-0.1,0.9-1.3,16.3,11.8,25c8.2,5.4,17.2,5,19.8,4.7"/>
<path class="st4" d="M5,55.8c2.2,4.3,6.9,12.1,16.4,18.4c6.1,4.1,11.9,6.2,16.1,7.3"/>
<text transform="matrix(1.0901 0 0 1 159.5918 182.7334)" class="st5 st6">wakafun</text>
</svg>
