<?xml version="1.0" encoding="utf-8"?>
<!-- Generator: Adobe Illustrator 24.1.1, SVG Export Plug-In . SVG Version: 6.00 Build 0)  -->
<svg version="1.1" id="图层_1" xmlns="http://www.w3.org/2000/svg" xmlns:xlink="http://www.w3.org/1999/xlink" x="0px" y="0px"
	 viewBox="0 0 200 200" style="enable-background:new 0 0 200 200;" xml:space="preserve">
<style type="text/css">
	.st0{fill:none;stroke:#0005B4;stroke-miterlimit:10;}
	.st1{fill:#E3FF4A;stroke:#0005B4;stroke-miterlimit:10;}
	.st2{fill:#22F400;}
	.st3{fill:none;stroke:#D435FF;stroke-miterlimit:10;}
	.st4{font-family:'KaiTi_GB2312';}
	.st5{font-size:9.2801px;}
</style>
<line class="st0" x1="114.43" y1="89.49" x2="115.95" y2="185.93"/>
<ellipse class="st1" cx="114.09" cy="89.34" rx="5.56" ry="4.72"/>
<path class="st2" d="M113.92,88.18l-4.64-0.39c-3.54-0.31-7.08-0.54-10.62-0.85c-16.02-1.24-32.04-2.55-47.97-3.79
	c4.97-1.01,36.76-7.42,44.01-0.15c0.51,0.54,0.93,1.16,1.18,1.93"/>
<path class="st2" d="M114.51,88.33l4.55-0.77c3.46-0.62,7-1.16,10.45-1.78c15.77-2.63,31.53-5.26,47.3-7.89
	c-4.38,2.17-32.79,16.01-42.15,10.75c-0.67-0.39-1.35-0.93-1.85-1.55"/>
<path class="st2" d="M113.92,89.19l3.04,3.02c2.28,2.24,4.64,4.56,6.91,6.81c10.45,10.36,20.91,20.65,31.36,31.01
	c-4.38-2.17-32.54-16.32-31.78-25.83c0.08-0.7,0.25-1.39,0.76-2.09"/>
<path class="st2" d="M113.92,89.19l-0.84-3.87c-0.67-2.94-1.26-5.88-1.94-8.89c-2.95-13.38-5.9-26.76-8.85-40.14
	c2.53,3.71,18.55,27.92,12.22,35.81c-0.51,0.62-1.1,1.08-1.85,1.55"/>
<path class="st2" d="M114.09,88.18l-2.7,3.25c-2.02,2.47-4.05,4.95-6.07,7.35c-9.19,11.14-18.46,22.27-27.65,33.41
	c1.43-4.18,10.54-30.78,21.67-32.48c0.84-0.15,1.69-0.15,2.61,0.08"/>
<path class="st3" d="M39.9,11.77c0,0.54,0.59,12.3,10.88,17.4c5.4,2.71,10.79,2.17,12.9,1.86"/>
<path class="st3" d="M8.37,11c-0.08,0.85-1.26,16.32,11.8,24.98c8.18,5.41,17.2,4.95,19.81,4.72"/>
<path class="st3" d="M5,55.85c2.19,4.25,6.91,12.06,16.36,18.41c6.07,4.1,11.89,6.19,16.1,7.35"/>
<text transform="matrix(1.0901 0 0 1 159.5918 182.7334)" class="st4 st5">wakafun</text>
</svg>
