<?xml version="1.0" encoding="utf-8"?>
<!-- Generator: Adobe Illustrator 24.1.1, SVG Export Plug-In . SVG Version: 6.00 Build 0)  -->
<svg version="1.1" id="图层_1" xmlns="http://www.w3.org/2000/svg" xmlns:xlink="http://www.w3.org/1999/xlink" x="0px" y="0px"
	 viewBox="0 0 256 256" style="enable-background:new 0 0 256 256;" xml:space="preserve">
<g>
	<g>
		<path d="M54.05,92.47c0.9,4.02,0.24,7.31-1.46,7.31s-3.36,1.2-3.69,2.66s-0.6,3.81-0.6,5.2s0.6,5.15,1.33,8.34
			s1.97,7.23,2.74,8.98s1.74,6.1,2.14,9.67s0.73,10.99,0.73,16.49v11.54c0,5.5-0.32,12.88-0.71,16.4s-1.04,7.87-1.44,9.67
			s-1.39,4.7-2.19,6.45s-2.42,3.18-3.6,3.18s-3.06-1.35-4.19-3.01s-2.66-1.65-3.41,0s-2.65,3.01-4.23,3.01s-3.51-1.43-4.31-3.18
			s-2.07-5.95-2.84-9.33s-1.99-7.5-2.72-9.15s-1.91-3.01-2.62-3.01s-1.56,1.2-1.89,2.66s-0.6,5.2-0.6,8.29s0.24,6.69,0.54,7.99
			s0.76,1.42,1.02,0.26s0.2-3.25-0.13-4.64s-0.49-3.02-0.36-3.61s0.6,0.55,1.04,2.54s0.38,5.41-0.12,7.61s-1.3,2.31-1.76,0.26
			s-0.85-6.72-0.85-10.36s0.34-9.62,0.76-13.28s1.76-6.66,2.98-6.66s2.87,1.43,3.67,3.18s2.38,7.34,3.53,12.42s2.69,10.57,3.42,12.2
			s1.93,2.97,2.65,2.97s1.91-1.33,2.64-2.97s1.63-4.28,1.99-5.89s0.96-5.57,1.33-8.81s0.67-8.5,0.67-11.69s-0.3-8.51-0.67-11.82
			s-1.3-10.17-2.07-15.26s-1.71-13.51-2.1-18.74s-0.71-14-0.71-19.5v-5.18c0-5.5,0.33-12.96,0.73-16.57s0.78-6.61,0.85-6.66
			s-0.21-0.84-0.61-1.76s-1.64-1.68-2.74-1.68s-2.53,1.14-3.16,2.54s-0.9,3.64-0.59,4.98s0.88,5.35,1.27,8.9s0.71,10.95,0.71,16.45
			v5.18c0,5.5-0.32,14.27-0.71,19.5s-1.34,13.69-2.12,18.82s-2.04,12.15-2.8,15.6s-1.5,5.87-1.65,5.37s0.37-5.02,1.13-10.06
			s1.64-13.65,1.95-19.14l0.24-4.35c0.3-5.49,0.55-14.48,0.55-19.98v-10.43c0-5.5-0.3-14.04-0.67-18.98s-0.95-10.2-1.29-11.69
			s-1.51-2.71-2.59-2.71s-2.55,2.57-3.26,5.72s-1.29,8.29-1.29,11.43s0.62,9.8,1.37,14.78s1.69,11.91,2.08,15.38
			s0.72,10.76,0.72,16.2s-0.68,11.39-1.5,13.24s-2.17,3.35-3,3.35s-1.85-1.59-2.29-3.52s-0.8-5.03-0.8-6.88s0.14-3.35,0.32-3.35
			s0.32,1.26,0.32,2.79s0.27,3.99,0.59,5.46s1.16,2.66,1.86,2.66s1.54-1.2,1.87-2.66s0.6-5.24,0.6-8.38s-0.62-9.8-1.38-14.78
			s-1.7-11.91-2.08-15.38s-0.71-9.26-0.71-12.85s0.33-9.45,0.73-13.02s1.38-7.96,2.18-9.75s2.46-3.23,3.69-3.18s2.82,1.4,3.54,3.01
			s1.91,1.57,2.65-0.09s2.32-3.01,3.51-3.01s2.66,1.06,3.26,2.36s1.83,1.3,2.72,0s2.59-2.36,3.77-2.36s2.8,1.47,3.61,3.27
			s1.79,6.07,2.18,9.5S53.15,88.46,54.05,92.47z M22.01,75.76c0.38-1.68,0.49-2.59,0.24-2.02s-0.56,1.94-0.7,3.05
			S21.63,77.43,22.01,75.76z M53.95,177.77c0.36-3.19,0.66-9.8,0.66-14.7s-0.3-11.54-0.66-14.78s-1.6-8.67-2.74-12.08
			s-2.42-9.07-2.82-12.59s-0.74-9.38-0.74-13.02s0.36-8.2,0.8-10.14s1.28-3.52,1.87-3.52s0.87-0.91,0.62-2.02s-0.77-6.18-1.15-11.26
			s-0.97-10.46-1.31-11.95s-1.51-2.71-2.6-2.71s-2.58,1.3-3.3,2.88s-1.61,5.49-1.97,8.68s-0.66,9.8-0.66,14.7s0.31,11.6,0.68,14.91
			s1.3,10.17,2.07,15.26s1.71,13.51,2.1,18.74s0.72,12.38,0.72,15.9s-0.3,9.01-0.66,12.2s-0.39,7-0.06,8.47s1.2,4.02,1.93,5.67
			s1.92,3.01,2.64,3.01s1.9-1.32,2.62-2.92S53.59,180.97,53.95,177.77z"/>
		<path d="M91.01,77.26c0,2.22-0.55,4.04-1.23,4.04s-0.85-1.7-0.38-3.78s0.61-4.85,0.32-6.15s-1.11-2.36-1.81-2.36
			s-1.55,1.22-1.89,2.71s-0.92,6.75-1.29,11.69s-0.68,13.48-0.68,18.98v59.41c0,5.5,0.55,12.46,1.23,15.46s1.8,2.89,2.5-0.26
			s1.38-5.25,1.51-4.68s-0.34,3.56-1.05,6.66s-1.33,5.88-1.39,6.19s-0.78,3.5-1.61,7.09s-2.21,3.46-3.06-0.3s-1.55-10.47-1.55-14.91
			s-1.37-3.79-3.04,1.45l-3.37,10.59c-1.67,5.24-4.03,5.14-5.25-0.22l-3.07-13.5c-1.22-5.36-1.18-11.3,0.08-13.19
			s2.9-6.09,3.63-9.33s1.63-9.93,2.01-14.87S72.3,124.5,72.3,119V96.37c0-5.5-0.31-12.65-0.68-15.89s-0.95-7.14-1.29-8.68
			s-1.19-2.79-1.9-2.79s-1.88,1.3-2.6,2.88s-1.59,5.34-1.93,8.34s-0.4,6.5-0.13,7.78c0.27,1.28,0.71,1.35,0.98,0.17
			s0.21-3.29-0.12-4.68s-0.49-3.02-0.36-3.61s0.6,0.55,1.04,2.54s0.38,5.45-0.13,7.69s-1.32,2.32-1.81,0.17s-0.54-6.99-0.12-10.74
			s1.44-8.3,2.25-10.1s2.13-3.27,2.94-3.27s2.12,1.43,2.92,3.18s1.79,4.69,2.19,6.53s1.06,7.63,1.44,12.85s0.71,14,0.71,19.5v5.01
			c0,5.5-0.32,14.27-0.71,19.5s-1.35,12.38-2.14,15.9s-2.08,7.8-2.86,9.5s-1.55,3.29-1.71,3.52s0.71,4.82,1.92,10.18l1.32,5.85
			c1.21,5.37,3.55,5.46,5.19,0.21l0.92-2.92c1.65-5.25,2.99-14.04,2.99-19.54v-53.57c0-5.5,0.32-12.9,0.72-16.45s1.05-7.9,1.45-9.67
			s1.39-4.65,2.18-6.4s2.12-3.18,2.94-3.18s1.85,1.59,2.29,3.52S91.01,75.04,91.01,77.26z"/>
		<path d="M125.26,178.46c0.13,0.59-0.76,5.41-1.97,10.7s-2.89,6.63-3.73,2.97s-1.98-11.14-2.53-16.61l-3.64-36.22
			c-0.55-5.47-1.83-8.33-2.84-6.34s-1.89,3.05-1.96,2.36s1.73-4.88,4-9.33s3.79-10.88,3.39-14.31s-1.01-7.55-1.36-9.15
			s-1.53-4.24-2.62-5.84s-2.56-1.65-3.28-0.09s-1.59,5.45-1.95,8.64s-0.65,8.41-0.65,11.6s0.5,10.27,1.11,15.74l0.52,4.62
			c0.61,5.47,1.43,14.17,1.83,19.35s0.72,12.31,0.72,15.86s-0.33,9.37-0.74,12.93s-1.39,7.96-2.18,9.75s-2.12,3.27-2.94,3.27
			s-2.14-1.43-2.94-3.18s-1.74-4.51-2.1-6.15s-1.43-2.96-2.37-2.96s-1.3-1.84-0.8-4.08s0.91-7.49,0.91-11.65s0.41-5.73,0.91-3.48
			s1.68,4.08,2.62,4.08s1.3,1.82,0.8,4.04s-0.91,6.5-0.91,9.5s0.57,6.71,1.27,8.25s1.85,2.79,2.56,2.79s1.87-2.57,2.58-5.72
			s1.29-8.29,1.29-11.43s-0.5-10.19-1.12-15.65l-1.9-16.91c-0.61-5.47-1.43-14.17-1.82-19.35s-0.71-13.69-0.71-18.91
			s0.32-12.4,0.71-15.94s1.36-9.29,2.16-12.76s2.42-7.75,3.6-9.5s3.1-3.18,4.27-3.18s3.09,1.43,4.27,3.18s2.8,6.02,3.6,9.5
			s1.77,9.14,2.15,12.59s0.57,6.58,0.42,6.96s-0.6-2.04-0.98-5.37s-1.3-8.77-2.03-12.08s-2.24-7.35-3.36-8.98s-2.95-2.97-4.07-2.97
			s-2.95,1.33-4.05,2.97s-2.61,6.93-3.34,11.77s-1.33,12.81-1.33,17.7s0.17,10.4,0.38,12.25s0.38,1.84,0.38,0s0.33-6.29,0.74-9.88
			s1.4-7.98,2.2-9.75s2.44-3.22,3.64-3.22s2.82,1.41,3.62,3.14s2.05,5.88,2.79,9.24s1.98,6.1,2.74,6.1s-0.12,3-1.98,6.66
			s-2.92,11.14-2.38,16.61l3.51,35.02c0.55,5.47,1.28,11.23,1.62,12.79s0.88,2.84,1.19,2.84s0.86-1.31,1.21-2.92
			S125.13,177.87,125.26,178.46z"/>
		<path d="M160.17,77.26c0,2.22-0.55,4.04-1.23,4.04s-0.85-1.7-0.38-3.78s0.61-4.85,0.32-6.15s-1.11-2.36-1.81-2.36
			s-1.56,1.22-1.89,2.71s-0.92,6.75-1.29,11.69s-0.68,13.48-0.68,18.98v59.41c0,5.5,0.55,12.46,1.23,15.46s1.8,2.89,2.5-0.26
			s1.38-5.25,1.51-4.68s-0.34,3.56-1.05,6.66s-1.33,5.88-1.39,6.19s-0.78,3.5-1.61,7.09s-2.21,3.46-3.06-0.3s-1.55-10.47-1.55-14.91
			s-1.37-3.79-3.04,1.45l-3.37,10.59c-1.67,5.24-4.03,5.14-5.25-0.22l-3.07-13.5c-1.22-5.36-1.18-11.3,0.08-13.19
			s2.9-6.09,3.63-9.33s1.63-9.93,2.01-14.87s0.68-13.48,0.68-18.98V96.37c0-5.5-0.31-12.65-0.68-15.89s-0.95-7.14-1.29-8.68
			s-1.19-2.79-1.9-2.79s-1.88,1.3-2.6,2.88s-1.59,5.34-1.93,8.34s-0.4,6.5-0.13,7.78s0.71,1.35,0.98,0.17s0.21-3.29-0.12-4.68
			s-0.49-3.02-0.36-3.61s0.6,0.55,1.04,2.54s0.38,5.45-0.13,7.69s-1.32,2.32-1.81,0.17s-0.54-6.99-0.12-10.74s1.44-8.3,2.25-10.1
			s2.13-3.27,2.94-3.27s2.12,1.43,2.92,3.18s1.79,4.69,2.19,6.53s1.06,7.63,1.44,12.85s0.71,14,0.71,19.5v5.01
			c0,5.5-0.32,14.27-0.71,19.5s-1.35,12.38-2.14,15.9s-2.08,7.8-2.86,9.5s-1.55,3.29-1.71,3.52s0.71,4.82,1.92,10.18l1.32,5.85
			c1.21,5.37,3.55,5.46,5.2,0.21l0.92-2.92c1.65-5.25,2.99-14.04,2.99-19.54v-53.57c0-5.5,0.32-12.9,0.72-16.45s1.05-7.9,1.45-9.67
			s1.39-4.65,2.18-6.4s2.12-3.18,2.94-3.18s1.85,1.59,2.29,3.52S160.17,75.04,160.17,77.26z"/>
		<path d="M178.96,66.35c0.73-3.31,0.83-1.54,0.23,3.92l-0.07,0.61c-0.61,5.47-1.45,11.45-1.88,13.3s-1.44,3.36-2.26,3.36
			s-2.11-1.39-2.88-3.1s-1.66-3.1-1.99-3.1s-0.86,1.2-1.19,2.67s-0.6,5.24-0.6,8.39s0.31,8.38,0.68,11.62s0.98,7.19,1.34,8.78
			s1.26,4.24,1.99,5.9s2.01,3.01,2.84,3.01s1.51,2.01,1.51,4.47s-1.25,4.47-2.78,4.47s-2.78,4.5-2.78,10v9.39
			c0,5.5-0.09,14.5-0.21,20l-0.98,47.82c-0.11,5.5-0.35,10-0.53,10s-0.41-4.5-0.52-10l-0.97-47.82c-0.11-5.5-0.2-14.5-0.2-20v-9.39
			c0-5.5-0.72-10-1.61-10s-1.19-1.91-0.68-4.25s1.24-6.9,1.61-10.14s0.68-10.39,0.68-15.89V89.58c0-5.5,0.34-13.02,0.76-16.7
			s1.44-6.7,2.28-6.7s2.15,1.39,2.92,3.09s1.98,3.09,2.69,3.09S178.22,69.65,178.96,66.35z"/>
		<path d="M203.98,178.46c0.13,0.59-0.76,5.41-1.97,10.7s-2.9,6.55-3.75,2.79s-1.55-7.74-1.55-8.85s-0.83,0.44-1.84,3.44
			s-2.52,6.95-3.35,8.77s-1.85,1.82-2.27,0s-1.35-4.64-2.08-6.27s-1.79-2.96-2.36-2.96s-0.62-1.84-0.12-4.08s0.91-8.58,0.91-14.08
			v-28.22c0-5.5-0.27-11.18-0.6-12.62s-0.86-2.62-1.17-2.62s-0.86,1.3-1.21,2.88c-0.35,1.58-0.74,2.41-0.87,1.85
			s0.76-5.38,1.97-10.7s2.9-6.59,3.75-2.84s1.55,11.33,1.55,16.83v35.09c0,5.5,0.6,11.31,1.33,12.92s1.61,4.18,1.95,5.72
			s1.48,0.26,2.52-2.84s1.9-10.13,1.9-15.63v-28.04c0-5.5-0.34-11.51-0.76-13.35c-0.42-1.84-0.03-6.54,0.85-10.44s2.33-3.9,3.22,0
			s1.27,8.6,0.85,10.44c-0.42,1.84-0.76,7.85-0.76,13.35v28.22c0,5.5,0.27,11.2,0.6,12.66s0.86,2.66,1.17,2.66s0.86-1.31,1.21-2.92
			S203.85,177.87,203.98,178.46z"/>
		<path d="M213.85,58.22c0,5.32-0.32,12.57-0.72,16.11s-1.04,7.88-1.44,9.63s-0.82,2.7-0.95,2.11s0.07-2.43,0.44-4.08
			s0.97-5.66,1.35-8.9s0.68-7.82,0.68-10.18s-0.24-3.23-0.53-1.93s-0.92,0.66-1.39-1.42s-0.85-5.41-0.85-7.39s0.38-5.31,0.85-7.39
			s1.24-2.08,1.71,0S213.85,52.91,213.85,58.22z"/>
		<path d="M243.95,178.46c0.13,0.59-0.76,5.41-1.97,10.7s-2.9,6.55-3.75,2.79s-1.55-11.33-1.55-16.83v-35.09
			c0-5.5-0.6-11.3-1.33-12.88c-0.73-1.58-1.61-4.16-1.95-5.72s-1.48-0.3-2.52,2.79s-1.9,10.13-1.9,15.63v28.04
			c0,5.5,0.34,11.51,0.76,13.35s0.03,6.54-0.85,10.44s-2.33,3.9-3.22,0s-1.27-8.6-0.85-10.44s0.76-7.85,0.76-13.35v-28.22
			c0-5.5-0.27-11.18-0.6-12.62s-0.86-2.62-1.17-2.62s-0.86,1.3-1.21,2.88c-0.35,1.58-0.74,2.41-0.87,1.85s0.76-5.38,1.97-10.7
			s2.9-6.59,3.75-2.84s1.55,7.74,1.55,8.85s0.83-0.44,1.84-3.44s2.52-6.95,3.35-8.77s1.85-1.82,2.27,0s1.35,4.66,2.08,6.32
			s1.79,3.01,2.36,3.01s0.62,1.82,0.12,4.04s-0.91,8.54-0.91,14.04v28.22c0,5.5,0.27,11.2,0.6,12.66s0.86,2.66,1.17,2.66
			s0.86-1.31,1.21-2.92S243.83,177.87,243.95,178.46z"/>
	</g>
</g>
</svg>
