<?xml version="1.0" encoding="utf-8"?>
<!-- Generator: Adobe Illustrator 24.1.1, SVG Export Plug-In . SVG Version: 6.00 Build 0)  -->
<svg version="1.1" id="图层_1" xmlns="http://www.w3.org/2000/svg" xmlns:xlink="http://www.w3.org/1999/xlink" x="0px" y="0px"
	 viewBox="0 0 949 256" style="enable-background:new 0 0 949 256;" xml:space="preserve">
<style type="text/css">
	.st0{fill:#3217CE;stroke:#E70006;stroke-miterlimit:10;}
	.st1{font-family:'PalatinoLinotype-Roman';}
	.st2{font-size:249.2569px;}
	.st3{letter-spacing:123;}
</style>
<g>
	<g>
		<path d="M61.3,75.9c1.2,4.9,0.3,8.8-1.9,8.8S55,86.2,54.5,88c-0.4,1.8-0.8,4.6-0.8,6.3s0.8,6.2,1.7,10.1c1,3.9,2.6,8.7,3.6,10.9
			c1,2.1,2.3,7.4,2.8,11.7c0.5,4.3,1,13.3,1,19.9v14c0,6.7-0.4,15.6-0.9,19.8c-0.5,4.3-1.4,9.5-1.9,11.7c-0.5,2.2-1.8,5.7-2.9,7.8
			c-1.1,2.1-3.2,3.8-4.7,3.8s-4-1.6-5.5-3.6c-1.5-2-3.5-2-4.5,0s-3.5,3.6-5.6,3.6c-2.1,0-4.6-1.7-5.7-3.8c-1.1-2.1-2.7-7.2-3.7-11.3
			c-1-4.1-2.6-9.1-3.6-11.1s-2.5-3.6-3.4-3.6s-2.1,1.5-2.5,3.2c-0.4,1.8-0.8,6.3-0.8,10s0.3,8.1,0.7,9.7c0.4,1.6,1,1.7,1.3,0.3
			c0.3-1.4,0.3-3.9-0.2-5.6c-0.4-1.7-0.6-3.7-0.5-4.4s0.8,0.7,1.4,3.1c0.6,2.4,0.5,6.5-0.2,9.2c-0.7,2.7-1.7,2.8-2.3,0.3
			c-0.6-2.5-1.1-8.1-1.1-12.5s0.4-11.6,1-16.1c0.6-4.4,2.3-8.1,3.9-8.1s3.8,1.7,4.8,3.8c1.1,2.1,3.1,8.9,4.6,15
			c1.5,6.1,3.5,12.8,4.5,14.8c1,2,2.5,3.6,3.5,3.6c0.9,0,2.5-1.6,3.5-3.6c1-2,2.1-5.2,2.6-7.1s1.3-6.7,1.7-10.7
			c0.5-3.9,0.9-10.3,0.9-14.1s-0.4-10.3-0.9-14.3c-0.5-4-1.7-12.3-2.7-18.5c-1-6.2-2.2-16.3-2.8-22.7c-0.5-6.3-0.9-16.9-0.9-23.6
			v-6.3c0-6.7,0.4-15.7,1-20c0.5-4.4,1-8,1.1-8.1c0.1-0.1-0.3-1-0.8-2.1c-0.5-1.1-2.2-2-3.6-2c-1.4,0-3.3,1.4-4.2,3.1
			c-0.8,1.7-1.2,4.4-0.8,6c0.4,1.6,1.2,6.5,1.7,10.8s0.9,13.2,0.9,19.9v6.3c0,6.7-0.4,17.3-0.9,23.6c-0.5,6.3-1.8,16.6-2.8,22.8
			c-1,6.2-2.7,14.7-3.7,18.9c-1,4.2-2,7.1-2.2,6.5s0.5-6.1,1.5-12.2c1-6.1,2.2-16.5,2.6-23.1l0.3-5.3c0.4-6.6,0.7-17.5,0.7-24.2
			V87.9c0-6.7-0.4-17-0.9-23s-1.2-12.3-1.7-14.1c-0.4-1.8-2-3.3-3.4-3.3c-1.4,0-3.4,3.1-4.3,6.9S19,64.5,19,68.3s0.8,11.9,1.8,17.9
			c1,6,2.2,14.4,2.7,18.6c0.5,4.2,0.9,13,0.9,19.6s-0.9,13.8-2,16c-1.1,2.2-2.9,4.1-3.9,4.1c-1.1,0-2.4-1.9-3-4.3
			c-0.6-2.3-1.1-6.1-1.1-8.3c0-2.2,0.2-4.1,0.4-4.1s0.4,1.5,0.4,3.4c0,1.9,0.4,4.8,0.8,6.6c0.4,1.8,1.5,3.2,2.4,3.2s2-1.5,2.5-3.2
			c0.4-1.8,0.8-6.3,0.8-10.1c0-3.8-0.8-11.9-1.8-17.9c-1-6-2.2-14.4-2.7-18.6c-0.5-4.2-0.9-11.2-0.9-15.5c0-4.3,0.4-11.4,1-15.7
			c0.5-4.3,1.8-9.6,2.9-11.8c1.1-2.2,3.2-3.9,4.9-3.8c1.6,0.1,3.7,1.7,4.7,3.6c0.9,1.9,2.5,1.9,3.5-0.1c1-2,3.1-3.6,4.6-3.6
			c1.6,0,3.5,1.3,4.3,2.9c0.8,1.6,2.4,1.6,3.6,0c1.2-1.6,3.4-2.9,5-2.9s3.7,1.8,4.7,4s2.4,7.3,2.9,11.5
			C58.7,63.7,60.1,71.1,61.3,75.9z M19.2,55.7c0.5-2,0.6-3.1,0.3-2.4c-0.3,0.7-0.7,2.3-0.9,3.7C18.4,58.3,18.7,57.7,19.2,55.7z
			 M61.2,179.1c0.5-3.9,0.9-11.9,0.9-17.8c0-5.9-0.4-14-0.9-17.9c-0.5-3.9-2.1-10.5-3.6-14.6c-1.5-4.1-3.2-11-3.7-15.2
			c-0.5-4.3-1-11.3-1-15.7c0-4.4,0.5-9.9,1.1-12.3c0.6-2.3,1.7-4.3,2.5-4.3c0.8,0,1.1-1.1,0.8-2.4c-0.3-1.3-1-7.5-1.5-13.6
			c-0.5-6.1-1.3-12.7-1.7-14.5c-0.4-1.8-2-3.3-3.4-3.3s-3.4,1.6-4.3,3.5c-0.9,1.9-2.1,6.6-2.6,10.5c-0.5,3.9-0.9,11.9-0.9,17.8
			s0.4,14,0.9,18c0.5,4,1.7,12.3,2.7,18.5s2.2,16.3,2.8,22.7c0.5,6.3,0.9,15,0.9,19.2s-0.4,10.9-0.9,14.8c-0.5,3.9-0.5,8.5-0.1,10.2
			c0.4,1.8,1.6,4.9,2.5,6.9c1,2,2.5,3.6,3.5,3.6c0.9,0,2.5-1.6,3.4-3.5C59.5,187.7,60.7,182.9,61.2,179.1z"/>
		<path d="M109.9,57.5c0,2.7-0.7,4.9-1.6,4.9s-1.1-2.1-0.5-4.6c0.6-2.5,0.8-5.9,0.4-7.4c-0.4-1.6-1.5-2.9-2.4-2.9s-2,1.5-2.5,3.3
			c-0.4,1.8-1.2,8.2-1.7,14.1c-0.5,6-0.9,16.3-0.9,23v71.8c0,6.7,0.7,15.1,1.6,18.7c0.9,3.6,2.4,3.5,3.3-0.3c0.9-3.8,1.8-6.3,2-5.7
			c0.2,0.7-0.4,4.3-1.4,8.1c-0.9,3.7-1.7,7.1-1.8,7.5c-0.1,0.4-1,4.2-2.1,8.6c-1.1,4.3-2.9,4.2-4-0.4c-1.1-4.5-2-12.7-2-18
			c0-5.4-1.8-4.6-4,1.8l-4.4,12.8c-2.2,6.3-5.3,6.2-6.9-0.3l-4-16.3c-1.6-6.5-1.6-13.7,0.1-16c1.7-2.3,3.8-7.4,4.8-11.3
			c1-3.9,2.1-12,2.6-18c0.5-6,0.9-16.3,0.9-23V80.6c0-6.7-0.4-15.3-0.9-19.2s-1.2-8.6-1.7-10.5c-0.4-1.9-1.6-3.4-2.5-3.4
			s-2.5,1.6-3.4,3.5s-2.1,6.5-2.5,10.1s-0.5,7.9-0.2,9.4c0.4,1.5,0.9,1.6,1.3,0.2c0.4-1.4,0.3-4-0.2-5.7c-0.4-1.7-0.6-3.7-0.5-4.4
			c0.2-0.7,0.8,0.7,1.4,3.1c0.6,2.4,0.5,6.6-0.2,9.3c-0.7,2.7-1.7,2.8-2.4,0.2c-0.6-2.6-0.7-8.5-0.2-13c0.6-4.5,1.9-10,3-12.2
			s2.8-4,3.9-4c1.1,0,2.8,1.7,3.8,3.8c1.1,2.1,2.4,5.7,2.9,7.9c0.5,2.2,1.4,9.2,1.9,15.5c0.5,6.3,0.9,16.9,0.9,23.6v6.1
			c0,6.7-0.4,17.3-0.9,23.6c-0.5,6.3-1.8,15-2.8,19.2c-1,4.3-2.7,9.4-3.8,11.5c-1,2.1-2,4-2.2,4.3c-0.2,0.3,0.9,5.8,2.5,12.3
			l1.7,7.1c1.6,6.5,4.7,6.6,6.8,0.3l1.2-3.5c2.2-6.3,3.9-17,3.9-23.6V87.3c0-6.7,0.4-15.6,0.9-19.9s1.4-9.6,1.9-11.7
			c0.5-2.1,1.8-5.6,2.9-7.7c1-2.1,2.8-3.8,3.9-3.8c1.1,0,2.4,1.9,3,4.3C109.4,50.7,109.9,54.8,109.9,57.5z"/>
		<path d="M154.9,179.9c0.2,0.7-1,6.5-2.6,12.9c-1.6,6.4-3.8,8-4.9,3.6c-1.1-4.4-2.6-13.5-3.3-20.1l-4.8-43.8
			c-0.7-6.6-2.4-10.1-3.7-7.7c-1.3,2.4-2.5,3.7-2.6,2.9c-0.1-0.8,2.3-5.9,5.3-11.3c3-5.4,5-13.2,4.5-17.3s-1.3-9.1-1.8-11.1
			c-0.5-1.9-2-5.1-3.4-7.1s-3.4-2-4.3-0.1c-0.9,1.9-2.1,6.6-2.6,10.4s-0.9,10.2-0.9,14c0,3.9,0.7,12.4,1.5,19l0.7,5.6
			c0.8,6.6,1.9,17.1,2.4,23.4c0.5,6.3,0.9,14.9,0.9,19.2s-0.4,11.3-1,15.6c-0.5,4.3-1.8,9.6-2.9,11.8c-1,2.2-2.8,4-3.9,4
			c-1.1,0-2.8-1.7-3.9-3.8c-1.1-2.1-2.3-5.5-2.8-7.4s-1.9-3.6-3.1-3.6c-1.2,0-1.7-2.2-1.1-4.9c0.7-2.7,1.2-9.1,1.2-14.1
			s0.5-6.9,1.2-4.2c0.7,2.7,2.2,4.9,3.4,4.9s1.7,2.2,1.1,4.9c-0.7,2.7-1.2,7.9-1.2,11.5s0.7,8.1,1.7,10c0.9,1.9,2.4,3.4,3.4,3.4
			c0.9,0,2.5-3.1,3.4-6.9c0.9-3.8,1.7-10,1.7-13.8s-0.7-12.3-1.5-18.9l-2.5-20.5c-0.8-6.6-1.9-17.1-2.4-23.4
			c-0.5-6.3-0.9-16.6-0.9-22.9s0.4-15,0.9-19.3c0.5-4.3,1.8-11.2,2.8-15.4c1.1-4.2,3.2-9.4,4.7-11.5c1.6-2.1,4.1-3.8,5.6-3.8
			c1.5,0,4.1,1.7,5.6,3.8c1.6,2.1,3.7,7.3,4.7,11.5c1.1,4.2,2.3,11.1,2.8,15.2c0.5,4.2,0.7,8,0.6,8.4c-0.2,0.5-0.8-2.5-1.3-6.5
			c-0.5-4-1.7-10.6-2.7-14.6s-2.9-8.9-4.4-10.9c-1.5-2-3.9-3.6-5.4-3.6c-1.5,0-3.9,1.6-5.3,3.6c-1.4,2-3.4,8.4-4.4,14.2
			s-1.7,15.5-1.7,21.4s0.2,12.6,0.5,14.8c0.3,2.2,0.5,2.2,0.5,0c0-2.2,0.4-7.6,1-11.9c0.5-4.3,1.8-9.7,2.9-11.8
			c1.1-2.1,3.2-3.9,4.8-3.9s3.7,1.7,4.8,3.8s2.7,7.1,3.7,11.2c1,4.1,2.6,7.4,3.6,7.4s-0.2,3.6-2.6,8.1c-2.4,4.4-3.8,13.5-3.1,20.1
			l4.6,42.4c0.7,6.6,1.7,13.6,2.1,15.5c0.4,1.9,1.2,3.4,1.6,3.4c0.4,0,1.1-1.6,1.6-3.5C154.2,180.2,154.7,179.2,154.9,179.9z"/>
		<path d="M200.8,57.5c0,2.7-0.7,4.9-1.6,4.9c-0.9,0-1.1-2.1-0.5-4.6c0.6-2.5,0.8-5.9,0.4-7.4c-0.4-1.6-1.5-2.9-2.4-2.9
			s-2.1,1.5-2.5,3.3c-0.4,1.8-1.2,8.2-1.7,14.1c-0.5,6-0.9,16.3-0.9,23v71.8c0,6.7,0.7,15.1,1.6,18.7c0.9,3.6,2.4,3.5,3.3-0.3
			s1.8-6.3,2-5.7c0.2,0.7-0.4,4.3-1.4,8.1c-0.9,3.7-1.7,7.1-1.8,7.5c-0.1,0.4-1,4.2-2.1,8.6s-2.9,4.2-4-0.4c-1.1-4.5-2-12.7-2-18
			c0-5.4-1.8-4.6-4,1.8l-4.4,12.8c-2.2,6.3-5.3,6.2-6.9-0.3l-4-16.3c-1.6-6.5-1.6-13.7,0.1-16c1.7-2.3,3.8-7.4,4.8-11.3
			c1-3.9,2.1-12,2.6-18c0.5-6,0.9-16.3,0.9-23V80.6c0-6.7-0.4-15.3-0.9-19.2s-1.2-8.6-1.7-10.5c-0.4-1.9-1.6-3.4-2.5-3.4
			c-0.9,0-2.5,1.6-3.4,3.5c-0.9,1.9-2.1,6.5-2.5,10.1s-0.5,7.9-0.2,9.4c0.4,1.5,0.9,1.6,1.3,0.2s0.3-4-0.2-5.7
			c-0.4-1.7-0.6-3.7-0.5-4.4c0.2-0.7,0.8,0.7,1.4,3.1s0.5,6.6-0.2,9.3c-0.7,2.7-1.7,2.8-2.4,0.2c-0.6-2.6-0.7-8.5-0.2-13
			c0.6-4.5,1.9-10,3-12.2c1.1-2.2,2.8-4,3.9-4c1.1,0,2.8,1.7,3.8,3.8c1.1,2.1,2.4,5.7,2.9,7.9c0.5,2.2,1.4,9.2,1.9,15.5
			c0.5,6.3,0.9,16.9,0.9,23.6v6.1c0,6.7-0.4,17.3-0.9,23.6c-0.5,6.3-1.8,15-2.8,19.2c-1,4.3-2.7,9.4-3.8,11.5c-1,2.1-2,4-2.2,4.3
			s0.9,5.8,2.5,12.3l1.7,7.1c1.6,6.5,4.7,6.6,6.8,0.3l1.2-3.5c2.2-6.3,3.9-17,3.9-23.6V87.3c0-6.7,0.4-15.6,0.9-19.9
			s1.4-9.6,1.9-11.7c0.5-2.1,1.8-5.6,2.9-7.7c1-2.1,2.8-3.8,3.9-3.8s2.4,1.9,3,4.3C200.3,50.7,200.8,54.8,200.8,57.5z"/>
		<path d="M225.5,44.3c1-4,1.1-1.9,0.3,4.7l-0.1,0.7c-0.8,6.6-1.9,13.8-2.5,16.1c-0.6,2.2-1.9,4.1-3,4.1c-1.1,0-2.8-1.7-3.8-3.7
			c-1-2.1-2.2-3.7-2.6-3.7s-1.1,1.5-1.6,3.2c-0.4,1.8-0.8,6.3-0.8,10.1c0,3.8,0.4,10.1,0.9,14.1c0.5,3.9,1.3,8.7,1.8,10.6
			c0.5,1.9,1.7,5.1,2.6,7.1c1,2,2.6,3.6,3.7,3.6s2,2.4,2,5.4s-1.6,5.4-3.7,5.4c-2,0-3.7,5.4-3.7,12.1v11.4c0,6.7-0.1,17.5-0.3,24.2
			l-1.3,57.8c-0.1,6.7-0.5,12.1-0.7,12.1s-0.5-5.4-0.7-12.1l-1.3-57.8c-0.1-6.7-0.3-17.5-0.3-24.2v-11.4c0-6.7-0.9-12.1-2.1-12.1
			s-1.6-2.3-0.9-5.1c0.7-2.8,1.6-8.3,2.1-12.3s0.9-12.6,0.9-19.2v-13c0-6.7,0.4-15.7,1-20.2c0.6-4.5,1.9-8.1,3-8.1
			c1.1,0,2.8,1.7,3.8,3.7c1,2.1,2.6,3.7,3.5,3.7C223,51.6,224.5,48.3,225.5,44.3z"/>
		<path d="M258.4,179.9c0.2,0.7-1,6.5-2.6,12.9c-1.6,6.4-3.8,7.9-4.9,3.4s-2-9.4-2-10.7c0-1.3-1.1,0.5-2.4,4.2
			c-1.3,3.6-3.3,8.4-4.4,10.6s-2.4,2.2-3,0c-0.6-2.2-1.8-5.6-2.7-7.6s-2.4-3.6-3.1-3.6c-0.7,0-0.8-2.2-0.2-4.9s1.2-10.4,1.2-17V133
			c0-6.7-0.4-13.5-0.8-15.3c-0.4-1.7-1.1-3.2-1.5-3.2s-1.1,1.6-1.6,3.5s-1,2.9-1.1,2.2s1-6.5,2.6-12.9c1.6-6.4,3.8-8,4.9-3.4
			c1.1,4.5,2,13.7,2,20.4v42.4c0,6.7,0.8,13.7,1.7,15.6s2.1,5.1,2.6,6.9c0.4,1.9,1.9,0.3,3.3-3.4c1.4-3.7,2.5-12.3,2.5-18.9V133
			c0-6.7-0.4-13.9-1-16.1s0-7.9,1.1-12.6c1.2-4.7,3.1-4.7,4.2,0c1.2,4.7,1.7,10.4,1.1,12.6c-0.6,2.2-1,9.5-1,16.1v34.1
			c0,6.7,0.4,13.5,0.8,15.3s1.1,3.2,1.5,3.2c0.4,0,1.1-1.6,1.6-3.5C257.7,180.2,258.2,179.2,258.4,179.9z"/>
		<path d="M271.4,34.5c0,6.4-0.4,15.2-0.9,19.5s-1.4,9.5-1.9,11.6c-0.5,2.1-1.1,3.3-1.2,2.6c-0.2-0.7,0.1-2.9,0.6-4.9
			c0.5-2,1.3-6.8,1.8-10.8s0.9-9.5,0.9-12.3c0-2.9-0.3-3.9-0.7-2.3s-1.2,0.8-1.8-1.7c-0.6-2.5-1.1-6.5-1.1-8.9s0.5-6.4,1.1-8.9
			c0.6-2.5,1.6-2.5,2.2,0S271.4,28.1,271.4,34.5z"/>
		<path d="M311,179.9c0.2,0.7-1,6.5-2.6,12.9s-3.8,7.9-4.9,3.4s-2-13.7-2-20.4v-42.4c0-6.7-0.8-13.7-1.7-15.6c-1-1.9-2.1-5-2.6-6.9
			s-1.9-0.4-3.3,3.4c-1.4,3.7-2.5,12.3-2.5,18.9v33.9c0,6.7,0.4,13.9,1,16.1c0.6,2.2,0,7.9-1.1,12.6c-1.2,4.7-3.1,4.7-4.2,0
			c-1.2-4.7-1.7-10.4-1.1-12.6c0.6-2.2,1-9.5,1-16.1V133c0-6.7-0.4-13.5-0.8-15.3c-0.4-1.7-1.1-3.2-1.5-3.2c-0.4,0-1.1,1.6-1.6,3.5
			c-0.5,1.9-1,2.9-1.1,2.2c-0.2-0.7,1-6.5,2.6-12.9c1.6-6.4,3.8-8,4.9-3.4c1.1,4.5,2,9.4,2,10.7c0,1.3,1.1-0.5,2.4-4.2
			c1.3-3.6,3.3-8.4,4.4-10.6c1.1-2.2,2.4-2.2,3,0c0.6,2.2,1.8,5.6,2.7,7.6c1,2,2.4,3.6,3.1,3.6s0.8,2.2,0.2,4.9
			c-0.7,2.7-1.2,10.3-1.2,17v34.1c0,6.7,0.4,13.5,0.8,15.3c0.4,1.8,1.1,3.2,1.5,3.2s1.1-1.6,1.6-3.5
			C310.3,180.2,310.8,179.2,311,179.9z"/>
	</g>
</g>
<text transform="matrix(0.3658 0 0 1 360.3794 186.1552)" class="st0 st1 st2 st3">Deja vu</text>
</svg>
